<svg width="106" height="95" viewBox="0 -200.75 160.711 149" xmlns="http://www.w3.org/2000/svg"><path d="M389.4 60.5c11.5-7.2 26.8-9.2 39.2-3 3.9 1.7 7.1 4.6 10.2 7.5.1-2.7 0-5.5.1-8.3 6.7.1 13.4 0 20.2.1V145c-.1 13.3-3.5 27.4-13.1 37.1-10.5 10.7-26.6 14-41.1 11.8-15.5-2.3-29-13.6-35-27.9 6-2.9 12.3-5.2 18.5-7.9 3.5 8.2 10.6 15.2 19.5 16.8 8.9 1.6 19.2-.6 25-8 6.2-7.6 6.2-18 5.9-27.3-4.6 4.5-9.9 8.5-16.3 10-13.9 3.9-29.2-.9-39.9-10.3-10.8-9.4-17.2-23.9-16.6-38.3.3-16.3 9.5-32 23.4-40.5m20.7 12.8c-6.1 1-11.8 4.4-15.7 9.1-9.4 11.2-9.4 29.1.1 40.1 5.4 6.5 14.1 10.1 22.5 9.2 7.9-.8 15.2-5.8 19.1-12.7 6.6-11.7 5.5-27.6-3.4-37.8-5.5-6.3-14.3-9.4-22.6-7.9z" style="fill:#3780ff" transform="translate(-263.99 -195.91) scale(.71614)"/><path d="M474.4 5.2h21.4V148c-7.1 0-14.3.1-21.4-.1.1-47.5 0-95.1 0-142.7z" style="fill:#38b137" transform="translate(-263.99 -195.91) scale(.71614)"/><path d="M521.5 65.6c12-11.2 30.5-15 45.9-9.1C582 62 591.3 75.9 596 90.2c-21.7 9-43.3 17.9-65 26.9 3 5.7 7.6 10.9 13.8 13 8.7 3.1 19.1 2 26.4-3.8 2.9-2.2 5.2-5.1 7.4-7.9 5.5 3.7 11 7.3 16.5 11-7.8 11.7-20.9 19.9-35 21.2-15.6 1.9-32.2-4.1-42.3-16.3-16.6-19.2-15-51.4 3.7-68.7m10.7 18.5c-3.4 4.9-4.8 10.9-4.7 16.8 14.5-6 29-12 43.5-18.1-2.4-5.6-8.2-9-14.1-9.9-9.5-1.7-19.4 3.4-24.7 11.2z" style="fill:#fa3913" transform="translate(-263.99 -195.91) scale(.71614)"/></svg>