<?xml version="1.0" encoding="UTF-8"?>
<!-- Uploaded to: SVG Repo, www.svgrepo.com, Generator: SVG Repo Mixer Tools -->
<svg width="775.29" height="689.2" data-name="Layer 1" version="1.1" viewBox="0 0 31.011 27.568" xmlns="http://www.w3.org/2000/svg">
 <g transform="matrix(1.1486 0 0 1.1486 -2.8731 -4.5945)">
  <path d="m29.5 21-3.1708 5.5489a3.07 3.07 0 0 1-2.6833 1.4511h-15.292a3.07 3.07 0 0 1-2.6833-1.4511l-1.3021-2.2789 5.3891-3.27z" fill="#4285f4"/>
  <path d="m12.382 4.13a3.2262 3.2262 0 0 0-1.7067 1.4276l-7.7164 13.202a3.07 3.07 0 0 0-0.1012 3.0489l1.53 2.4658 5.37-3.2747 6.2421-10.68z" fill="#00ac47"/>
  <path d="m9.7578 21h-7.1898a2.6543 2.6543 0 0 0 0.29 0.8089l1.522 2.4543-0.0115 7e-3 1.3024 2.2788a2.8267 2.8267 0 0 0 1.3371 1.1484l2.7498-6.6974-0.0081 0.0049z" fill="#0066da"/>
  <path d="m19.607 4.13a3.2256 3.2256 0 0 1 1.7066 1.4276l7.7166 13.202a3.07 3.07 0 0 1 0.1013 3.0489l-1.5295 2.4658-5.3707-3.2747-6.2422-10.68z" fill="#ffba00"/>
  <path d="m22.231 21h7.19a2.6541 2.6541 0 0 1-0.29 0.8089l-1.5224 2.4544 0.0116 7e-3 -1.3022 2.2787a2.8272 2.8272 0 0 1-1.3371 1.1484l-2.7498-6.6974 0.0081 0.0049z" fill="#ea4435"/>
  <path d="m19.616 4.1342 0.0023-4e-3a2.7726 2.7726 0 0 0-0.3609-0.0983l-3.2569-0.0319-3.2569 0.0319a2.7726 2.7726 0 0 0-0.3609 0.0983 3.0224 3.0224 0 0 0-0.367 0.1666l3.9737 6.0232 3.9881-6.0207a3.03 3.03 0 0 0-0.3615-0.1651z" fill="#188038"/>
 </g>
</svg>
