<?xml version="1.0" encoding="UTF-8"?>
<!-- Uploaded to: SVG Repo, www.svgrepo.com, Generator: SVG Repo Mixer Tools -->
<svg width="572.25" height="787.98" data-name="Layer 1" version="1.1" viewBox="0 0 22.89 31.519" xmlns="http://www.w3.org/2000/svg">
 <g transform="matrix(1.1445 0 0 1.1445 -6.867 -2.5522)">
  <path d="m25.396 8.8345-0.0039 0.0038c0.0837 0.2319 0.1617 0.4667 0.2285 0.7062-0.0678-0.2398-0.1405-0.4775-0.2246-0.71z" fill="#4285f4"/>
  <path d="m16 2.23-7.071 2.9293 4.0626 4.0627a4.2487 4.2487 0 0 1 6.0292 5.988l5.9792-5.98 0.392-0.392a9.9872 9.9872 0 0 0-9.392-6.608z" fill="#4285f4"/>
  <path d="m16 16.473a4.25 4.25 0 0 1-3.0084-7.2513l-4.0626-4.0627a9.9683 9.9683 0 0 0-2.929 7.0707c0 4.4057 2.2651 7.1668 4.93 10 0.1787 0.1828 0.3274 0.3852 0.4959 0.5746l7.5608-7.5609a4.2341 4.2341 0 0 1-2.9867 1.2296z" fill="#ffba00"/>
  <path d="m16 2.23a10 10 0 0 0-10 10 11.092 11.092 0 0 0 0.5454 3.4546l12.85-12.85a9.9563 9.9563 0 0 0-3.3959-0.6046z" fill="#0066da"/>
  <path d="m16.901 29.12a21.83 21.83 0 0 1 4.032-6.8966c2.8645-2.9105 5.0669-5.5874 5.0669-9.9934a9.9585 9.9585 0 0 0-0.6041-3.3958l-13.97 13.97a18.044 18.044 0 0 1 3.5914 6.2758 0.9975 0.9975 0 0 0 1.8838 0.04z" fill="#00ac47"/>
  <g fill="#0066da">
   <path d="m10.93 22.23c0.1787 0.1828 0.3274 0.3852 0.4959 0.5746-0.1689-0.1891-0.3176-0.3915-0.4959-0.5746z" opacity=".5"/>
   <path d="m7.207 7.4637a9.9357 9.9357 0 0 0-0.757 1.7929 9.9429 9.9429 0 0 1 0.757-1.7929z" opacity=".5"/>
   <path d="m6.45 9.2566a9.9522 9.9522 0 0 0-0.398 1.9513 9.9537 9.9537 0 0 1 0.398-1.9513z" opacity=".5"/>
  </g>
  <g fill="#fff">
   <path d="m15.196 29.399c0.02 0.0248 0.0445 0.0422 0.0664 0.0644-0.0221-0.0222-0.0465-0.0397-0.0664-0.0644z"/>
   <path d="m15.787 29.743 0.04 0.0066z"/>
   <path d="m13.622 25.927c-0.0371-0.067-0.0679-0.1382-0.1059-0.2047 0.0376 0.0668 0.0692 0.1378 0.1059 0.2047z"/>
   <path d="m15.017 29.08q-0.3069-0.9036-0.6906-1.7566c0.2526 0.5703 0.486 1.1537 0.6906 1.7566z"/>
   <path d="m15.527 29.656c-0.0229-0.0112-0.0463-0.0207-0.0684-0.0338 0.0224 0.0131 0.0451 0.0227 0.0684 0.0338z"/>
   <path d="m19.712 23.753c-0.249 0.3474-0.4679 0.7125-0.6927 1.0741 0.2241-0.362 0.4443-0.7264 0.6927-1.0741z"/>
   <polygon points=""/>
   <path d="m17.047 28.774q0.3516-0.887 0.7561-1.7428c-0.2713 0.5694-0.5217 1.1514-0.7561 1.7428z"/>
   <path d="m18.68 25.358c-0.2879 0.4957-0.55 1.0068-0.8 1.5242 0.25-0.5179 0.5131-1.0279 0.8-1.5242z"/>
  </g>
  <path d="M 8.929,5.1593 A 9.9683,9.9683 0 0 0 6,12.23 11.0918,11.0918 0 0 0 6.5454,15.6846 L 13,9.23 Z" fill="#ea4435"/>
 </g>
</svg>
