<?xml version="1.0" encoding="UTF-8"?>
<!-- Uploaded to: SVG Repo, www.svgrepo.com, Generator: SVG Repo Mixer Tools -->
<svg width="776.49" height="744.13" data-name="Layer 1" version="1.1" viewBox="0 0 31.059 29.765" xmlns="http://www.w3.org/2000/svg">
 <g transform="matrix(1.2941 0 0 1.2941 -5.1766 -5.8236)">
  <path d="m22 4.5v6h-12v11h-6v-15a2.0059 2.0059 0 0 1 2-2z" fill="#4285f4"/>
  <polygon points="28 21.5 22 27.5 22 21.5" fill="#ea4435"/>
  <rect x="22" y="9.5" width="6" height="12" fill="#ffba00"/>
  <rect transform="rotate(90,16,24.5)" x="13" y="18.5" width="6" height="12" fill="#00ac47"/>
  <path d="m28 6.5v4h-6v-6h4a2.0059 2.0059 0 0 1 2 2z" fill="#0066da"/>
  <path d="m10 21.5v6h-4a2.0059 2.0059 0 0 1-2-2v-4z" fill="#188038"/>
  <path d="m15.69 17.09c0 0.89-0.66 1.79-2.15 1.79a3.0026 3.0026 0 0 1-1.52-0.39l-0.08-0.06 0.29-0.82 0.13 0.08a2.3554 2.3554 0 0 0 1.17 0.34 1.191 1.191 0 0 0 0.88-0.31 0.8586 0.8586 0 0 0 0.25-0.65c-0.01-0.73-0.68-0.99-1.31-0.99h-0.54v-0.81h0.54c0.45 0 1.12-0.22 1.12-0.82 0-0.45-0.31-0.71-0.85-0.71a1.8865 1.8865 0 0 0-1.04 0.34l-0.14 0.1-0.28-0.79 0.07-0.06a2.834 2.834 0 0 1 1.53-0.45c1.19 0 1.72 0.73 1.72 1.45a1.4369 1.4369 0 0 1-0.81 1.3 1.52 1.52 0 0 1 1.02 1.46z" fill="#4285f4"/>
  <polygon points="18.71 18.79 17.73 18.79 17.73 14 16.79 14.51 16.58 13.69 17.95 12.98 18.71 12.98" fill="#4285f4"/>
 </g>
</svg>
