<?xml version="1.0" encoding="UTF-8"?>
<!-- Uploaded to: SVG Repo, www.svgrepo.com, Generator: SVG Repo Mixer Tools -->
<svg width="783.91" height="783.91" data-name="Layer 1" version="1.1" viewBox="0 0 31.356 31.356" xmlns="http://www.w3.org/2000/svg">
 <g transform="matrix(1.3065 0 0 1.3065 -5.2261 -5.2261)">
  <path d="m4 16a6 6 0 0 1 12 0z" fill="#ffba00"/>
  <path d="m22 10a6 6 0 0 1-6 6v-12a6 6 0 0 1 6 6" fill="#ea4435"/>
  <path d="m28 16a6 6 0 0 1-12 0z" fill="#0066da"/>
  <path d="m10 22a6 6 0 0 1 6-6v12a6 6 0 0 1-6-6" fill="#00ac47"/>
 </g>
</svg>
