<?xml version="1.0" encoding="UTF-8"?>
<!-- Uploaded to: SVG Repo, www.svgrepo.com, Generator: SVG Repo Mixer Tools -->
<svg width="780.09" height="606.76" data-name="Layer 1" version="1.1" viewBox="0 0 31.204 24.27" xmlns="http://www.w3.org/2000/svg">
 <g transform="matrix(1.1557 0 0 1.1557 -2.8892 -6.3563)">
  <path d="m16.58 19.107-12.69-8.0757a3 3 0 0 1 3.2209-5.0611l9.31 5.9243 8.3591-5.8515a3 3 0 0 1 3.44 4.9151z" fill="#ea4435"/>
  <path transform="rotate(180 26.5 16)" d="m25.5 5.5h4v18a3 3 0 0 1-3 3 3 3 0 0 1-3-3v-16a2 2 0 0 1 2-2z" fill="#00ac47"/>
  <path d="m29.456 8.0656c-0.0088-0.06-0.0081-0.1213-0.0206-0.1812-0.0192-0.0918-0.0549-0.1766-0.0823-0.2652a2.9312 2.9312 0 0 0-0.0958-0.2993c-0.02-0.0475-0.0508-0.0892-0.0735-0.1354a2.9838 2.9838 0 0 0-0.2154-0.3845c-0.04-0.0581-0.09-0.1076-0.1342-0.1626a3.0282 3.0282 0 0 0-0.2455-0.2849c-0.0665-0.0647-0.1423-0.1188-0.2146-0.1771a3.02 3.02 0 0 0-0.24-0.1857c-0.0793-0.0518-0.1661-0.0917-0.25-0.1359-0.0884-0.0461-0.175-0.0963-0.267-0.1331-0.0889-0.0358-0.1837-0.0586-0.2766-0.0859s-0.1853-0.06-0.2807-0.0777a3.0543 3.0543 0 0 0-0.357-0.036c-0.0759-0.0053-0.1511-0.0186-0.2273-0.018a2.9778 2.9778 0 0 0-0.4219 0.0425c-0.0563 0.0084-0.113 0.0077-0.1689 0.0193a33.211 33.211 0 0 0-0.5645 0.178c-0.0515 0.022-0.0966 0.0547-0.1465 0.0795a2.901 2.901 0 0 0-1.6739 2.6776v5.762l4.72-3.3043a2.8878 2.8878 0 0 0 1.2359-2.8923z" fill="#ffba00"/>
  <path d="m5.5 5.5a3 3 0 0 1 3 3v18h-4a2 2 0 0 1-2-2v-16a3 3 0 0 1 3-3z" fill="#4285f4"/>
  <path d="m2.5439 8.0656c0.0088-0.06 0.0081-0.1213 0.0206-0.1812 0.0192-0.0918 0.0549-0.1766 0.0823-0.2652a2.9312 2.9312 0 0 1 0.0958-0.2992c0.02-0.0475 0.0508-0.0892 0.0736-0.1354a2.9719 2.9719 0 0 1 0.2154-0.3846c0.04-0.0581 0.09-0.1076 0.1342-0.1626a3.0272 3.0272 0 0 1 0.2454-0.2849c0.0665-0.0647 0.1423-0.1188 0.2147-0.1771a3.0005 3.0005 0 0 1 0.24-0.1857c0.0793-0.0518 0.1661-0.0917 0.25-0.1359a2.9747 2.9747 0 0 1 0.267-0.1338c0.089-0.0358 0.1838-0.0586 0.2766-0.0859s0.1853-0.06 0.2807-0.0777a3.0565 3.0565 0 0 1 0.357-0.036c0.076-0.0053 0.1511-0.0186 0.2273-0.018a2.9763 2.9763 0 0 1 0.4219 0.0425c0.0563 0.0084 0.113 0.0077 0.169 0.0193a2.9056 2.9056 0 0 1 0.286 0.0888 2.9157 2.9157 0 0 1 0.2785 0.0892c0.0514 0.022 0.0965 0.0547 0.1465 0.0795a2.9745 2.9745 0 0 1 0.3742 0.21 2.9943 2.9943 0 0 1 1.2994 2.4683v5.762l-4.72-3.3041a2.8891 2.8891 0 0 1-1.2361-2.8923z" fill="#c52528"/>
 </g>
</svg>
