<?xml version="1.0" encoding="UTF-8"?>
<!-- Uploaded to: SVG Repo, www.svgrepo.com, Generator: SVG Repo Mixer Tools -->
<svg width="776.79" height="776.79" data-name="Layer 1" version="1.1" viewBox="0 0 31.071 31.072" xmlns="http://www.w3.org/2000/svg">
 <g transform="matrix(1.1725 0 0 1.1725 -3.2244 -3.2244)">
  <path d="m23.75 16a7.7446 7.7446 0 0 1-15.032 2.6259l-4.4328 3.5462a13.244 13.244 0 0 0 24.965-6.1721" fill="#00ac47"/>
  <path d="m23.75 16a7.7387 7.7387 0 0 1-3.2516 6.2987l4.3824 3.5059a13.204 13.204 0 0 0 4.3692-9.8046" fill="#4285f4"/>
  <path d="m8.25 16a7.698 7.698 0 0 1 0.4677-2.6259l-4.4328-3.5462a13.177 13.177 0 0 0 0 12.344l4.4328-3.5462a7.698 7.698 0 0 1-0.4677-2.6259z" fill="#ffba00"/>
  <polygon points="" fill="#2ab2db"/>
  <path d="m16 8.25a7.699 7.699 0 0 1 4.558 1.4958l4.06-3.7893a13.215 13.215 0 0 0-20.333 3.8714l4.4328 3.5462a7.756 7.756 0 0 1 7.2823-5.1241z" fill="#ea4435"/>
  <polygon points="" fill="#2ab2db"/>
  <path d="m29.25 15v1l-2.25 3.5h-10.5v-5.5h11.75a1 1 0 0 1 1 1z" fill="#4285f4"/>
 </g>
</svg>
