<svg width="45" height="95" viewBox="0 -200.75 68.226 149" id="Layer_1" version="1.1" xmlns="http://www.w3.org/2000/svg"><style id="style1">.st0{fill:#3780ff}</style><g id="g6" transform="translate(-111.227 -195.91) scale(.71614)"><path d="M193.5 54.7c13.2-2.5 27.5.3 38.4 8.2 9.9 7 16.8 18 18.9 30 2.7 13.9-.7 29.1-9.7 40.1-9.7 12.3-25.6 18.9-41.1 17.9-14.2-.8-28-7.9-36.4-19.5-9.5-12.8-11.8-30.4-6.6-45.4 5.2-16.1 19.9-28.4 36.5-31.3m3 19c-5.4 1.4-10.4 4.5-14 8.9-9.7 11.6-9.1 30.5 1.6 41.3 6.1 6.2 15.3 9.1 23.8 7.4 7.9-1.4 14.8-6.7 18.6-13.7 6.6-11.9 4.7-28.3-5.4-37.6-6.5-6-16-8.5-24.6-6.3z" id="path3" style="fill:#fa3913"/></g></svg>