<svg width="45" height="95" viewBox="0 -200.75 68.226 149" id="Layer_1" version="1.1" xmlns="http://www.w3.org/2000/svg"><style id="style1">.st0{fill:#3780ff}.st2{fill:#fa3913}</style><g id="g6" transform="translate(-187.204 -195.91) scale(.71614)"><path d="M299.5 54.7c15.1-2.9 31.6 1.3 42.9 11.9 18.4 16.5 20.4 47.4 4.7 66.4-9.5 12-24.9 18.6-40.1 17.9-14.5-.4-28.8-7.6-37.4-19.5-9.7-13.1-11.8-31.1-6.3-46.4 5.5-15.6 19.9-27.5 36.2-30.3m3 19c-5.4 1.4-10.4 4.5-14 8.8-9.6 11.4-9.2 30 1.1 40.9 6.1 6.5 15.6 9.7 24.4 7.9 7.8-1.5 14.8-6.7 18.6-13.7 6.5-12 4.6-28.4-5.6-37.7-6.5-6-16-8.4-24.5-6.2z" id="path4" style="fill:#fcbd06"/></g></svg>